<svg id="svg" version="1.1" width="759" height="500" xmlns="http://www.w3.org/2000/svg" xmlns:xlink="http://www.w3.org/1999/xlink" style="display: block;"><g id="svgg"><path id="path0" d="M174.027 19.874 C 172.672 20.133,171.422 21.965,168.170 28.458 C 166.936 30.922,165.720 33.294,165.468 33.729 C 164.755 34.956,163.493 37.497,162.589 39.526 C 162.136 40.540,161.535 41.726,161.251 42.161 C 160.968 42.596,160.150 44.137,159.432 45.586 C 158.715 47.036,157.909 48.577,157.640 49.012 C 157.371 49.447,156.275 51.581,155.205 53.755 C 152.074 60.110,149.063 66.078,148.557 66.930 C 148.299 67.365,147.501 68.906,146.784 70.356 C 146.067 71.805,145.276 73.347,145.025 73.781 C 144.505 74.687,144.246 75.191,139.352 84.848 C 137.369 88.762,135.598 92.082,135.417 92.227 C 135.235 92.372,134.819 93.272,134.492 94.228 C 134.165 95.183,133.415 96.579,132.825 97.329 C 132.235 98.079,131.752 99.103,131.752 99.605 C 131.752 100.106,131.320 101.082,130.793 101.773 C 130.265 102.465,128.342 105.995,126.519 109.618 C 124.697 113.241,122.884 116.798,122.491 117.523 C 122.097 118.248,121.471 119.471,121.099 120.242 C 115.350 132.147,113.888 133.865,112.202 130.698 C 111.240 128.892,110.133 126.634,109.361 124.901 C 108.908 123.887,108.302 122.701,108.014 122.266 C 107.725 121.831,107.132 120.646,106.696 119.631 C 106.260 118.617,105.692 117.431,105.434 116.996 C 105.176 116.561,104.084 114.427,103.007 112.253 C 101.931 110.079,100.843 107.945,100.590 107.510 C 100.337 107.075,99.543 105.534,98.826 104.084 C 98.109 102.635,97.296 101.094,97.020 100.659 C 96.743 100.224,95.061 96.904,93.282 93.281 C 91.503 89.657,89.843 86.337,89.593 85.903 C 89.343 85.468,88.240 83.215,87.142 80.896 C 86.044 78.577,84.842 76.366,84.470 75.983 C 84.098 75.600,83.794 74.885,83.794 74.393 C 83.794 73.901,83.235 72.673,82.551 71.664 C 81.868 70.655,81.128 69.236,80.908 68.511 C 80.688 67.787,80.219 66.838,79.866 66.403 C 79.514 65.968,78.905 64.783,78.515 63.768 C 78.124 62.754,77.374 61.358,76.847 60.667 C 76.320 59.975,75.889 58.982,75.889 58.458 C 75.889 57.935,75.689 57.383,75.445 57.231 C 75.200 57.080,72.100 51.197,68.555 44.157 C 65.010 37.117,61.907 31.001,61.659 30.567 C 61.410 30.132,60.323 27.919,59.242 25.649 C 56.491 19.873,56.743 19.974,45.528 20.146 L 36.100 20.290 35.967 136.464 C 35.861 229.055,35.968 252.722,36.494 253.056 C 37.444 253.659,57.117 253.590,58.727 252.977 L 60.079 252.464 60.079 168.954 C 60.079 73.963,59.879 77.491,64.698 87.360 C 65.934 89.892,67.163 92.319,67.428 92.754 C 67.693 93.188,68.806 95.441,69.900 97.760 C 70.994 100.079,72.019 102.095,72.177 102.240 C 72.335 102.385,73.375 104.401,74.490 106.719 C 75.604 109.038,76.715 111.291,76.959 111.726 C 77.202 112.161,79.684 117.022,82.473 122.530 C 85.263 128.037,87.743 132.899,87.985 133.333 C 88.227 133.768,88.700 134.717,89.036 135.441 C 90.032 137.590,91.693 140.917,92.193 141.765 C 92.450 142.200,93.534 144.335,94.603 146.509 C 95.671 148.682,96.760 150.817,97.022 151.252 C 97.284 151.686,98.085 153.228,98.802 154.677 C 99.519 156.126,100.326 157.668,100.595 158.103 C 100.863 158.538,101.960 160.672,103.032 162.846 C 104.104 165.020,105.525 167.747,106.191 168.906 L 107.401 171.014 111.658 171.167 C 117.038 171.361,117.708 170.937,120.404 165.637 C 121.554 163.377,122.621 161.410,122.775 161.265 C 122.930 161.120,124.093 158.986,125.359 156.522 C 126.626 154.058,128.342 150.856,129.172 149.407 C 130.002 147.958,131.157 145.823,131.738 144.664 C 132.319 143.505,133.477 141.370,134.312 139.921 C 135.146 138.472,137.381 134.321,139.279 130.698 C 141.176 127.075,143.464 122.806,144.364 121.212 C 145.263 119.618,146.450 117.332,147.001 116.132 C 147.552 114.932,148.241 113.803,148.532 113.623 C 148.824 113.442,149.213 112.611,149.396 111.775 C 149.580 110.938,150.178 109.849,150.725 109.354 C 151.271 108.860,151.869 107.770,152.053 106.934 C 152.236 106.098,152.625 105.267,152.917 105.086 C 153.208 104.906,153.903 103.777,154.461 102.577 C 155.019 101.377,156.761 98.024,158.333 95.125 C 159.904 92.227,162.185 87.899,163.401 85.507 C 164.618 83.116,165.773 81.159,165.968 81.159 C 167.562 81.159,167.589 82.570,167.589 167.444 L 167.589 252.464 168.968 252.988 C 169.770 253.293,174.906 253.453,181.221 253.370 L 192.095 253.228 192.228 137.078 C 192.326 51.660,192.204 20.739,191.768 20.214 C 191.192 19.519,177.267 19.253,174.027 19.874 M220.290 20.553 C 219.308 21.535,219.236 22.310,219.236 31.897 L 219.236 42.187 220.588 42.701 C 221.410 43.014,234.078 43.215,252.956 43.215 C 270.015 43.215,284.347 43.359,284.805 43.535 C 285.562 43.825,285.639 53.530,285.639 148.127 C 285.639 250.680,285.656 252.409,286.658 252.946 C 288.022 253.675,309.607 253.675,310.970 252.946 C 311.973 252.409,311.989 250.682,311.989 148.353 C 311.989 46.024,312.006 44.297,313.009 43.760 C 313.680 43.401,325.024 43.215,346.176 43.215 C 365.789 43.215,378.851 43.014,379.676 42.701 L 381.028 42.187 381.028 31.663 C 381.028 21.386,381.000 21.121,379.856 20.320 C 377.780 18.865,221.749 19.094,220.290 20.553 " stroke="none" fill="#212121" fill-rule="evenodd"></path><path id="path1" d="M0.000 131.752 L 0.000 263.505 200.000 263.505 L 400.000 263.505 400.000 131.752 L 400.000 0.000 200.000 0.000 L 0.000 0.000 0.000 131.752 M191.768 20.214 C 192.204 20.739,192.326 51.660,192.228 137.078 L 192.095 253.228 181.221 253.370 C 174.906 253.453,169.770 253.293,168.968 252.988 L 167.589 252.464 167.589 167.444 C 167.589 82.570,167.562 81.159,165.968 81.159 C 165.773 81.159,164.618 83.116,163.401 85.507 C 162.185 87.899,159.904 92.227,158.333 95.125 C 156.761 98.024,155.019 101.377,154.461 102.577 C 153.903 103.777,153.208 104.906,152.917 105.086 C 152.625 105.267,152.236 106.098,152.053 106.934 C 151.869 107.770,151.271 108.860,150.725 109.354 C 150.178 109.849,149.580 110.938,149.396 111.775 C 149.213 112.611,148.824 113.442,148.532 113.623 C 148.241 113.803,147.552 114.932,147.001 116.132 C 146.450 117.332,145.263 119.618,144.364 121.212 C 143.464 122.806,141.176 127.075,139.279 130.698 C 137.381 134.321,135.146 138.472,134.312 139.921 C 133.477 141.370,132.319 143.505,131.738 144.664 C 131.157 145.823,130.002 147.958,129.172 149.407 C 128.342 150.856,126.626 154.058,125.359 156.522 C 124.093 158.986,122.930 161.120,122.775 161.265 C 122.621 161.410,121.554 163.377,120.404 165.637 C 117.708 170.937,117.038 171.361,111.658 171.167 L 107.401 171.014 106.191 168.906 C 105.525 167.747,104.104 165.020,103.032 162.846 C 101.960 160.672,100.863 158.538,100.595 158.103 C 100.326 157.668,99.519 156.126,98.802 154.677 C 98.085 153.228,97.284 151.686,97.022 151.252 C 96.760 150.817,95.671 148.682,94.603 146.509 C 93.534 144.335,92.450 142.200,92.193 141.765 C 91.693 140.917,90.032 137.590,89.036 135.441 C 88.700 134.717,88.227 133.768,87.985 133.333 C 87.743 132.899,85.263 128.037,82.473 122.530 C 79.684 117.022,77.202 112.161,76.959 111.726 C 76.715 111.291,75.604 109.038,74.490 106.719 C 73.375 104.401,72.335 102.385,72.177 102.240 C 72.019 102.095,70.994 100.079,69.900 97.760 C 68.806 95.441,67.693 93.188,67.428 92.754 C 67.163 92.319,65.934 89.892,64.698 87.360 C 59.879 77.491,60.079 73.963,60.079 168.954 L 60.079 252.464 58.727 252.977 C 57.117 253.590,37.444 253.659,36.494 253.056 C 35.968 252.722,35.861 229.055,35.967 136.464 L 36.100 20.290 45.528 20.146 C 56.743 19.974,56.491 19.873,59.242 25.649 C 60.323 27.919,61.410 30.132,61.659 30.567 C 61.907 31.001,65.010 37.117,68.555 44.157 C 72.100 51.197,75.200 57.080,75.445 57.231 C 75.689 57.383,75.889 57.935,75.889 58.458 C 75.889 58.982,76.320 59.975,76.847 60.667 C 77.374 61.358,78.124 62.754,78.515 63.768 C 78.905 64.783,79.514 65.968,79.866 66.403 C 80.219 66.838,80.688 67.787,80.908 68.511 C 81.128 69.236,81.868 70.655,82.551 71.664 C 83.235 72.673,83.794 73.901,83.794 74.393 C 83.794 74.885,84.098 75.600,84.470 75.983 C 84.842 76.366,86.044 78.577,87.142 80.896 C 88.240 83.215,89.343 85.468,89.593 85.903 C 89.843 86.337,91.503 89.657,93.282 93.281 C 95.061 96.904,96.743 100.224,97.020 100.659 C 97.296 101.094,98.109 102.635,98.826 104.084 C 99.543 105.534,100.337 107.075,100.590 107.510 C 100.843 107.945,101.931 110.079,103.007 112.253 C 104.084 114.427,105.176 116.561,105.434 116.996 C 105.692 117.431,106.260 118.617,106.696 119.631 C 107.132 120.646,107.725 121.831,108.014 122.266 C 108.302 122.701,108.908 123.887,109.361 124.901 C 110.133 126.634,111.240 128.892,112.202 130.698 C 113.888 133.865,115.350 132.147,121.099 120.242 C 121.471 119.471,122.097 118.248,122.491 117.523 C 122.884 116.798,124.697 113.241,126.519 109.618 C 128.342 105.995,130.265 102.465,130.793 101.773 C 131.320 101.082,131.752 100.106,131.752 99.605 C 131.752 99.103,132.235 98.079,132.825 97.329 C 133.415 96.579,134.165 95.183,134.492 94.228 C 134.819 93.272,135.235 92.372,135.417 92.227 C 135.598 92.082,137.369 88.762,139.352 84.848 C 144.246 75.191,144.505 74.687,145.025 73.781 C 145.276 73.347,146.067 71.805,146.784 70.356 C 147.501 68.906,148.299 67.365,148.557 66.930 C 149.063 66.078,152.074 60.110,155.205 53.755 C 156.275 51.581,157.371 49.447,157.640 49.012 C 157.909 48.577,158.715 47.036,159.432 45.586 C 160.150 44.137,160.968 42.596,161.251 42.161 C 161.535 41.726,162.136 40.540,162.589 39.526 C 163.493 37.497,164.755 34.956,165.468 33.729 C 165.720 33.294,166.936 30.922,168.170 28.458 C 171.422 21.965,172.672 20.133,174.027 19.874 C 177.267 19.253,191.192 19.519,191.768 20.214 M379.856 20.320 C 381.000 21.121,381.028 21.386,381.028 31.663 L 381.028 42.187 379.676 42.701 C 378.851 43.014,365.789 43.215,346.176 43.215 C 325.024 43.215,313.680 43.401,313.009 43.760 C 312.006 44.297,311.989 46.024,311.989 148.353 C 311.989 250.682,311.973 252.409,310.970 252.946 C 309.607 253.675,288.022 253.675,286.658 252.946 C 285.656 252.409,285.639 250.680,285.639 148.127 C 285.639 53.530,285.562 43.825,284.805 43.535 C 284.347 43.359,270.015 43.215,252.956 43.215 C 234.078 43.215,221.410 43.014,220.588 42.701 L 219.236 42.187 219.236 31.897 C 219.236 22.310,219.308 21.535,220.290 20.553 C 221.749 19.094,377.780 18.865,379.856 20.320 " stroke="none" fill="#ffffff" fill-rule="evenodd"></path></g></svg>