<?xml version="1.0" standalone="no"?>
<!DOCTYPE svg PUBLIC "-//W3C//DTD SVG 20010904//EN"
 "http://www.w3.org/TR/2001/REC-SVG-20010904/DTD/svg10.dtd">
<svg version="1.0" xmlns="http://www.w3.org/2000/svg"
 width="442.000000pt" height="316.000000pt" viewBox="0 0 442.000000 316.000000"
 preserveAspectRatio="xMidYMid meet">
<metadata>
Created by potrace 1.13, written by Peter Selinger 2001-2015
</metadata>
<g transform="translate(0.000000,316.000000) scale(0.100000,-0.100000)"
fill="#000000" stroke="none">
<path d="M3138 2348 l-3 -233 -152 -3 -153 -3 0 -192 0 -192 152 0 153 0 5
-435 c6 -489 7 -490 81 -594 78 -108 203 -168 395 -187 116 -12 296 1 382 26
l52 16 0 199 c0 110 -2 200 -4 200 -2 0 -21 -7 -42 -16 -26 -11 -70 -17 -134
-18 -119 -1 -173 21 -211 87 -24 42 -24 43 -27 385 l-3 342 211 0 210 0 0 190
0 190 -210 0 -210 0 0 235 0 235 -245 0 -245 0 -2 -232z"/>
<path d="M941 2134 c-116 -31 -229 -110 -293 -204 -16 -24 -17 -22 -17 78 l-1
102 -235 0 -235 0 0 -785 0 -785 245 0 245 0 0 450 c0 471 3 517 45 600 44 87
123 132 234 132 73 1 110 -13 153 -59 64 -67 63 -58 66 -616 l3 -507 244 0
245 0 0 453 c0 490 3 525 54 612 36 60 99 100 179 114 106 17 175 -7 224 -79
45 -65 46 -82 50 -602 l4 -498 240 0 239 0 0 523 c0 416 -3 541 -15 614 -35
216 -118 344 -269 418 -86 42 -149 55 -271 55 -215 0 -348 -60 -453 -205 l-46
-64 -27 47 c-56 99 -160 172 -294 207 -74 19 -241 19 -314 -1z"/>
</g>
</svg>
