<?xml version="1.0" standalone="no"?>
<!DOCTYPE svg PUBLIC "-//W3C//DTD SVG 20010904//EN"
 "http://www.w3.org/TR/2001/REC-SVG-20010904/DTD/svg10.dtd">
<svg version="1.0" xmlns="http://www.w3.org/2000/svg"
 width="135.000000pt" height="76.000000pt" viewBox="0 0 135.000000 76.000000"
 preserveAspectRatio="xMidYMid meet">
<metadata>
Created by potrace 1.10, written by Peter Selinger 2001-2011
</metadata>
<g transform="translate(0.000000,76.000000) scale(0.100000,-0.100000)"
fill="#8e1616" stroke="none">
<path d="M913 740 c-83 -9 -93 -14 -93 -44 0 -33 19 -46 71 -46 142 0 143 -1
138 -360 l-4 -275 42 -3 c37 -3 43 0 47 20 3 13 9 143 14 291 8 246 10 269 29
295 14 18 34 30 64 35 117 22 114 21 117 51 2 16 -2 32 -10 37 -16 10 -314 9
-415 -1z"/>
<path d="M73 710 c-12 -5 -24 -17 -27 -27 -3 -10 -10 -144 -16 -298 -6 -153
-14 -283 -16 -287 -12 -19 8 -49 29 -46 30 4 41 46 71 267 14 101 28 186 31
190 12 12 35 -34 96 -189 33 -85 68 -163 76 -172 20 -22 56 -23 73 -3 7 8 44
86 84 172 82 183 92 201 102 190 4 -4 11 -62 16 -130 17 -240 24 -297 44 -318
10 -11 27 -19 38 -17 19 3 20 10 17 307 -1 167 -7 314 -11 327 -14 35 -46 48
-82 33 -36 -15 -69 -65 -163 -247 -38 -73 -74 -131 -79 -129 -6 2 -35 50 -64
107 -96 187 -136 251 -164 266 -15 8 -28 14 -30 13 -2 0 -13 -4 -25 -9z"/>
</g>
</svg>
